<?xml version="1.0" encoding="utf-8"?>
<!-- Generator: Adobe Illustrator 16.0.0, SVG Export Plug-In . SVG Version: 6.00 Build 0)  -->
<!DOCTYPE svg PUBLIC "-//W3C//DTD SVG 1.1//EN" "http://www.w3.org/Graphics/SVG/1.1/DTD/svg11.dtd">
<svg version="1.1" id="レイヤー_1" xmlns="http://www.w3.org/2000/svg" xmlns:xlink="http://www.w3.org/1999/xlink" x="0px"
	 y="0px" width="849.852px" height="207.745px" viewBox="25.797 3.302 849.852 207.745"
	 enable-background="new 25.797 3.302 849.852 207.745" xml:space="preserve">
<g>
	<polygon fill="#110A0F" points="25.797,59.958 82.453,211.046 120.226,211.046 139.108,135.507 157.996,211.046 195.763,211.046 
		252.421,59.958 214.654,59.958 176.881,154.386 157.996,59.958 120.226,59.958 101.337,154.386 63.568,59.958 	"/>
	<path fill="#110A0F" d="M497.93,59.958c-41.72,0-75.54,33.82-75.54,75.549c0,41.709,33.819,75.539,75.54,75.539
		c41.724,0,75.551-33.83,75.551-75.539C573.48,93.779,539.653,59.958,497.93,59.958z M497.93,173.273
		c-20.854,0-37.769-16.916-37.769-37.766c0-20.871,16.913-37.774,37.769-37.774c20.865,0,37.771,16.903,37.771,37.774
		C535.702,156.357,518.795,173.273,497.93,173.273z"/>
	<path fill="#110A0F" d="M686.787,59.958v71.997c0,22.822-6.811,41.318-27.275,41.318c-20.457,0-27.275-18.496-27.275-41.318V59.958
		h-39.871v84.993c0,36.5,16.521,66.096,66.098,66.096s66.1-29.596,66.1-66.096V59.958H686.787z"/>
	<path fill="#110A0F" d="M875.648,126.054v84.992h-39.872V139.05c0-22.84-6.819-41.316-27.28-41.316
		c-20.454,0-27.276,18.477-27.276,41.316v71.996h-37.776V3.302h37.776v60.793c7.929-2.668,17.312-4.136,28.329-4.136
		C859.107,59.958,875.648,89.547,875.648,126.054z"/>
	<path fill="#110A0F" d="M365.738,59.958V70.08c-11.121-6.447-24.004-10.122-37.775-10.122c-41.709,0-75.542,33.82-75.542,75.549
		c0,41.705,33.833,75.539,75.542,75.539c13.771,0,26.654-3.682,37.775-10.119v10.119h37.771V59.958H365.738z M327.962,173.273
		c-20.85,0-37.768-16.916-37.768-37.766c0-20.857,16.918-37.774,37.768-37.774c20.86,0,37.775,16.917,37.775,37.774
		C365.738,156.357,348.822,173.273,327.962,173.273z"/>
</g>
</svg>
