<?xml version="1.0" encoding="UTF-8" standalone="no"?>
<!-- Generator: Adobe Illustrator 16.0.0, SVG Export Plug-In . SVG Version: 6.00 Build 0)  -->

<svg
   xmlns:dc="http://purl.org/dc/elements/1.1/"
   xmlns:cc="http://creativecommons.org/ns#"
   xmlns:rdf="http://www.w3.org/1999/02/22-rdf-syntax-ns#"
   xmlns:svg="http://www.w3.org/2000/svg"
   xmlns="http://www.w3.org/2000/svg"
   xmlns:sodipodi="http://sodipodi.sourceforge.net/DTD/sodipodi-0.dtd"
   xmlns:inkscape="http://www.inkscape.org/namespaces/inkscape"
   version="1.1"
   id="レイヤー_1"
   x="0px"
   y="0px"
   width="849.852px"
   height="207.745px"
   viewBox="25.797 3.302 849.852 207.745"
   enable-background="new 25.797 3.302 849.852 207.745"
   xml:space="preserve"
   inkscape:version="0.91 r13725"
   sodipodi:docname="waouh-logo-white.svg"><metadata
     id="metadata19"><rdf:RDF><cc:Work
         rdf:about=""><dc:format>image/svg+xml</dc:format><dc:type
           rdf:resource="http://purl.org/dc/dcmitype/StillImage" /><dc:title></dc:title></cc:Work></rdf:RDF></metadata><defs
     id="defs17" /><sodipodi:namedview
     pagecolor="#ffffff"
     bordercolor="#666666"
     borderopacity="1"
     objecttolerance="10"
     gridtolerance="10"
     guidetolerance="10"
     inkscape:pageopacity="0"
     inkscape:pageshadow="2"
     inkscape:window-width="640"
     inkscape:window-height="480"
     id="namedview15"
     showgrid="false"
     inkscape:zoom="0.3647694"
     inkscape:cx="424.92599"
     inkscape:cy="103.8725"
     inkscape:window-x="0"
     inkscape:window-y="0"
     inkscape:window-maximized="0"
     inkscape:current-layer="レイヤー_1" /><g
     id="g3"
     style="fill:#ffffff"><polygon
       points="157.996,211.046 195.763,211.046 252.421,59.958 214.654,59.958 176.881,154.386 157.996,59.958 120.226,59.958 101.337,154.386 63.568,59.958 25.797,59.958 82.453,211.046 120.226,211.046 139.108,135.507 "
       id="polygon5"
       style="fill:#ffffff" /><path
       d="m 497.93,59.958 c -41.72,0 -75.54,33.82 -75.54,75.549 0,41.709 33.819,75.539 75.54,75.539 41.724,0 75.551,-33.83 75.551,-75.539 C 573.48,93.779 539.653,59.958 497.93,59.958 Z m 0,113.315 c -20.854,0 -37.769,-16.916 -37.769,-37.766 0,-20.871 16.913,-37.774 37.769,-37.774 20.865,0 37.771,16.903 37.771,37.774 10e-4,20.85 -16.906,37.766 -37.771,37.766 z"
       id="path7"
       inkscape:connector-curvature="0"
       style="fill:#ffffff" /><path
       d="m 686.787,59.958 0,71.997 c 0,22.822 -6.811,41.318 -27.275,41.318 -20.457,0 -27.275,-18.496 -27.275,-41.318 l 0,-71.997 -39.871,0 0,84.993 c 0,36.5 16.521,66.096 66.098,66.096 49.577,0 66.1,-29.596 66.1,-66.096 l 0,-84.993 -37.777,0 z"
       id="path9"
       inkscape:connector-curvature="0"
       style="fill:#ffffff" /><path
       d="m 875.648,126.054 0,84.992 -39.872,0 0,-71.996 c 0,-22.84 -6.819,-41.316 -27.28,-41.316 -20.454,0 -27.276,18.477 -27.276,41.316 l 0,71.996 -37.776,0 0,-207.744 37.776,0 0,60.793 c 7.929,-2.668 17.312,-4.136 28.329,-4.136 49.558,-0.001 66.099,29.588 66.099,66.095 z"
       id="path11"
       inkscape:connector-curvature="0"
       style="fill:#ffffff" /><path
       d="m 365.738,59.958 0,10.122 c -11.121,-6.447 -24.004,-10.122 -37.775,-10.122 -41.709,0 -75.542,33.82 -75.542,75.549 0,41.705 33.833,75.539 75.542,75.539 13.771,0 26.654,-3.682 37.775,-10.119 l 0,10.119 37.771,0 0,-151.088 -37.771,0 z m -37.776,113.315 c -20.85,0 -37.768,-16.916 -37.768,-37.766 0,-20.857 16.918,-37.774 37.768,-37.774 20.86,0 37.775,16.917 37.775,37.774 10e-4,20.85 -16.915,37.766 -37.775,37.766 z"
       id="path13"
       inkscape:connector-curvature="0"
       style="fill:#ffffff" /></g></svg>